<mxfile host="app.diagrams.net" modified="2020-08-14T13:20:20.745Z" agent="5.0 (Macintosh; Intel Mac OS X 10_14_6) AppleWebKit/537.36 (KHTML, like Gecko) Chrome/84.0.4147.125 Safari/537.36" etag="U5DsHlTzNEqVS9PJsLF0" version="13.4.2" type="github">
  <diagram id="B_o69elYVnDTq7Qa2pj7" name="Page-1">
    <mxGraphModel dx="1123" dy="734" grid="1" gridSize="10" guides="1" tooltips="1" connect="1" arrows="1" fold="1" page="1" pageScale="1" pageWidth="850" pageHeight="1100" math="0" shadow="0">
      <root>
        <mxCell id="0" />
        <mxCell id="1" parent="0" />
        <mxCell id="KoP8xbsmuno4EhDo2Lqq-17" value="" style="rounded=1;whiteSpace=wrap;html=1;perimeterSpacing=17;arcSize=50;" vertex="1" parent="1">
          <mxGeometry x="25" y="426" width="290" height="60" as="geometry" />
        </mxCell>
        <mxCell id="KoP8xbsmuno4EhDo2Lqq-10" value="" style="shape=trapezoid;perimeter=trapezoidPerimeter;whiteSpace=wrap;html=1;" vertex="1" parent="1">
          <mxGeometry x="480" y="226" width="20" height="10" as="geometry" />
        </mxCell>
        <mxCell id="KoP8xbsmuno4EhDo2Lqq-7" value="" style="rounded=0;whiteSpace=wrap;html=1;" vertex="1" parent="1">
          <mxGeometry x="450" y="165" width="80" height="10" as="geometry" />
        </mxCell>
        <mxCell id="KoP8xbsmuno4EhDo2Lqq-1" value="" style="rounded=0;whiteSpace=wrap;html=1;rotation=-55;direction=west;" vertex="1" parent="1">
          <mxGeometry x="149.99999999999997" y="180" width="410" height="30" as="geometry" />
        </mxCell>
        <mxCell id="KoP8xbsmuno4EhDo2Lqq-2" value="" style="rounded=1;whiteSpace=wrap;html=1;" vertex="1" parent="1">
          <mxGeometry x="440" y="170" width="100" height="60" as="geometry" />
        </mxCell>
        <mxCell id="KoP8xbsmuno4EhDo2Lqq-3" value="" style="endArrow=none;dashed=1;html=1;dashPattern=1 3;strokeWidth=2;entryX=0;entryY=0;entryDx=0;entryDy=0;exitX=1;exitY=0;exitDx=0;exitDy=0;" edge="1" parent="1" source="KoP8xbsmuno4EhDo2Lqq-2" target="KoP8xbsmuno4EhDo2Lqq-1">
          <mxGeometry width="50" height="50" relative="1" as="geometry">
            <mxPoint x="510" y="234.32" as="sourcePoint" />
            <mxPoint x="560" y="184.32" as="targetPoint" />
          </mxGeometry>
        </mxCell>
        <mxCell id="KoP8xbsmuno4EhDo2Lqq-4" value="" style="endArrow=none;dashed=1;html=1;dashPattern=1 3;strokeWidth=2;exitX=0;exitY=0;exitDx=0;exitDy=0;entryX=0;entryY=0;entryDx=0;entryDy=0;" edge="1" parent="1" source="KoP8xbsmuno4EhDo2Lqq-2" target="KoP8xbsmuno4EhDo2Lqq-1">
          <mxGeometry width="50" height="50" relative="1" as="geometry">
            <mxPoint x="510" y="234.32" as="sourcePoint" />
            <mxPoint x="560" y="184.32" as="targetPoint" />
          </mxGeometry>
        </mxCell>
        <mxCell id="KoP8xbsmuno4EhDo2Lqq-5" value="" style="rounded=0;whiteSpace=wrap;html=1;" vertex="1" parent="1">
          <mxGeometry x="80" y="300" width="180" height="130" as="geometry" />
        </mxCell>
        <mxCell id="KoP8xbsmuno4EhDo2Lqq-6" value="" style="rounded=0;whiteSpace=wrap;html=1;" vertex="1" parent="1">
          <mxGeometry x="160" y="320" width="80" height="70" as="geometry" />
        </mxCell>
        <mxCell id="KoP8xbsmuno4EhDo2Lqq-8" value="" style="rounded=0;whiteSpace=wrap;html=1;" vertex="1" parent="1">
          <mxGeometry x="540" y="190" width="10" height="20" as="geometry" />
        </mxCell>
        <mxCell id="KoP8xbsmuno4EhDo2Lqq-9" value="" style="endArrow=none;html=1;entryX=0.5;entryY=0;entryDx=0;entryDy=0;" edge="1" parent="1" target="KoP8xbsmuno4EhDo2Lqq-8">
          <mxGeometry width="50" height="50" relative="1" as="geometry">
            <mxPoint x="545" y="180" as="sourcePoint" />
            <mxPoint x="540" y="180" as="targetPoint" />
          </mxGeometry>
        </mxCell>
        <mxCell id="KoP8xbsmuno4EhDo2Lqq-14" value="" style="rounded=0;whiteSpace=wrap;html=1;" vertex="1" parent="1">
          <mxGeometry x="230" y="345" width="10" height="40" as="geometry" />
        </mxCell>
        <mxCell id="KoP8xbsmuno4EhDo2Lqq-15" value="" style="shape=umlActor;verticalLabelPosition=bottom;verticalAlign=top;html=1;outlineConnect=0;" vertex="1" parent="1">
          <mxGeometry x="175" y="350" width="30" height="60" as="geometry" />
        </mxCell>
        <mxCell id="KoP8xbsmuno4EhDo2Lqq-16" value="" style="rounded=0;whiteSpace=wrap;html=1;strokeColor=#FFFFFF;" vertex="1" parent="1">
          <mxGeometry x="140" y="391" width="100" height="30" as="geometry" />
        </mxCell>
        <mxCell id="KoP8xbsmuno4EhDo2Lqq-18" value="" style="rounded=0;whiteSpace=wrap;html=1;strokeColor=#000000;" vertex="1" parent="1">
          <mxGeometry x="340" y="367.5" width="320" height="25" as="geometry" />
        </mxCell>
        <mxCell id="KoP8xbsmuno4EhDo2Lqq-19" value="" style="endArrow=none;dashed=1;html=1;dashPattern=1 3;strokeWidth=2;entryX=0;entryY=1;entryDx=0;entryDy=0;exitX=0.375;exitY=-0.06;exitDx=0;exitDy=0;exitPerimeter=0;" edge="1" parent="1" source="KoP8xbsmuno4EhDo2Lqq-18" target="KoP8xbsmuno4EhDo2Lqq-2">
          <mxGeometry width="50" height="50" relative="1" as="geometry">
            <mxPoint x="360" y="290" as="sourcePoint" />
            <mxPoint x="410" y="240" as="targetPoint" />
          </mxGeometry>
        </mxCell>
        <mxCell id="KoP8xbsmuno4EhDo2Lqq-20" value="" style="endArrow=none;dashed=1;html=1;dashPattern=1 3;strokeWidth=2;exitX=0.558;exitY=-0.117;exitDx=0;exitDy=0;exitPerimeter=0;entryX=0.932;entryY=0.988;entryDx=0;entryDy=0;entryPerimeter=0;" edge="1" parent="1" source="KoP8xbsmuno4EhDo2Lqq-18" target="KoP8xbsmuno4EhDo2Lqq-2">
          <mxGeometry width="50" height="50" relative="1" as="geometry">
            <mxPoint x="470" y="376" as="sourcePoint" />
            <mxPoint x="530" y="220" as="targetPoint" />
          </mxGeometry>
        </mxCell>
      </root>
    </mxGraphModel>
  </diagram>
</mxfile>
